<svg width="24" height="26" viewBox="0 0 24 26" fill="none" xmlns="http://www.w3.org/2000/svg">
<path fill-rule="evenodd" clip-rule="evenodd" d="M1.87891 4.04102C1.87891 2.88416 2.77441 1.98132 3.83678 1.98132H21.0419C22.1043 1.98132 22.9998 2.88416 22.9998 4.04102V21.9589C22.9998 23.1158 22.1043 24.0186 21.0419 24.0186H3.83678C2.77441 24.0186 1.87891 23.1158 1.87891 21.9589V4.04102ZM3.83678 0.981323C2.18426 0.981323 0.878906 2.37052 0.878906 4.04102V21.9589C0.878906 23.6294 2.18426 25.0186 3.83678 25.0186H21.0419C22.6944 25.0186 23.9998 23.6294 23.9998 21.9589V4.04102C23.9998 2.37052 22.6944 0.981323 21.0419 0.981323H3.83678ZM7.52357 12.5C7.24742 12.5 7.02357 12.7239 7.02357 13C7.02357 13.2762 7.24742 13.5 7.52357 13.5H17.3551C17.6312 13.5 17.8551 13.2762 17.8551 13C17.8551 12.7239 17.6312 12.5 17.3551 12.5H7.52357Z" fill="#8C919E"/>
</svg>
