<svg width="24" height="26" viewBox="0 0 24 26" fill="none" xmlns="http://www.w3.org/2000/svg">
<path fill-rule="evenodd" clip-rule="evenodd" d="M3.39733 1.98145C2.33496 1.98145 1.43945 2.88428 1.43945 4.04114V21.959C1.43945 23.1159 2.33496 24.0187 3.39733 24.0187H20.6024C21.6648 24.0187 22.5603 23.1159 22.5603 21.959V4.04114C22.5603 2.88428 21.6648 1.98145 20.6024 1.98145H3.39733ZM0.439453 4.04114C0.439453 2.37064 1.7448 0.981445 3.39733 0.981445H20.6024C22.255 0.981445 23.5603 2.37064 23.5603 4.04114V21.959C23.5603 23.6295 22.255 25.0187 20.6024 25.0187H3.39733C1.7448 25.0187 0.439453 23.6295 0.439453 21.959V4.04114ZM12 7.38062C12.2761 7.38062 12.5 7.60447 12.5 7.88062V12.5H16.9155C17.1916 12.5 17.4155 12.7239 17.4155 13C17.4155 13.2761 17.1916 13.5 16.9155 13.5H12.5V18.1194C12.5 18.3956 12.2761 18.6194 12 18.6194C11.7239 18.6194 11.5 18.3956 11.5 18.1194V13.5H7.08398C6.80784 13.5 6.58398 13.2761 6.58398 13C6.58398 12.7239 6.80784 12.5 7.08398 12.5H11.5V7.88062C11.5 7.60447 11.7239 7.38062 12 7.38062Z" fill="black"/>
</svg>
